<?xml version="1.0" standalone="no"?>
<!DOCTYPE svg PUBLIC "-//W3C//DTD SVG 20010904//EN"
 "http://www.w3.org/TR/2001/REC-SVG-20010904/DTD/svg10.dtd">
<svg version="1.0" xmlns="http://www.w3.org/2000/svg"
 width="1000.000000pt" height="1000.000000pt" viewBox="0 0 1000.000000 1000.000000"
 preserveAspectRatio="xMidYMid meet">
<metadata>
Created by potrace 1.14, written by Peter Selinger 2001-2017
</metadata>
<g transform="translate(0.000000,1000.000000) scale(0.100000,-0.100000)"
fill="#000000" stroke="none">
<path d="M5439 9986 c-41 -12 -146 -62 -159 -77 -4 -4 -89 -54 -200 -116 -19
-11 -64 -38 -100 -59 -36 -22 -81 -48 -100 -57 -19 -10 -60 -33 -90 -52 -30
-19 -69 -42 -86 -50 -29 -15 -83 -62 -112 -99 -7 -9 -20 -50 -29 -92 -14 -64
-15 -84 -4 -132 15 -70 15 -70 30 -107 6 -16 13 -35 15 -41 4 -9 -83 -74 -98
-74 -3 0 -30 -16 -60 -35 -30 -19 -60 -35 -66 -35 -5 0 -10 -4 -10 -10 0 -5
-5 -10 -11 -10 -6 0 -39 -17 -73 -37 -33 -21 -72 -43 -86 -50 -14 -7 -41 -23
-62 -35 -63 -40 -153 -93 -163 -97 -5 -2 -21 -12 -35 -21 -14 -9 -45 -28 -70
-42 -25 -14 -101 -58 -170 -98 -69 -41 -134 -78 -145 -84 -11 -7 -39 -24 -62
-39 -24 -15 -45 -27 -48 -27 -3 0 -41 -22 -85 -50 -44 -27 -82 -50 -85 -50 -2
0 -44 -24 -92 -53 -48 -29 -95 -56 -103 -60 -8 -4 -28 -16 -45 -27 -16 -11
-37 -23 -45 -27 -8 -3 -27 -14 -41 -24 -14 -10 -29 -16 -33 -12 -3 3 -6 2 -6
-4 0 -5 -12 -15 -27 -22 -16 -7 -51 -28 -80 -47 -28 -19 -54 -34 -58 -34 -5 0
-71 -39 -131 -78 -10 -6 -26 -15 -34 -19 -8 -4 -17 -9 -20 -12 -3 -4 -16 -12
-30 -19 -14 -6 -38 -20 -55 -30 -128 -76 -157 -92 -161 -92 -2 0 -33 -18 -68
-40 -35 -22 -68 -40 -73 -40 -5 0 -18 -9 -28 -20 -10 -11 -22 -20 -26 -20 -7
0 -69 -35 -154 -87 -11 -7 -36 -20 -55 -30 -19 -10 -71 -40 -115 -68 -44 -28
-96 -59 -115 -68 -37 -18 -58 -31 -101 -59 l-27 -18 -47 64 c-25 35 -65 77
-88 93 -90 64 -231 66 -337 6 -99 -56 -132 -75 -300 -173 -284 -166 -298 -174
-365 -209 -113 -59 -153 -108 -175 -215 -19 -92 -7 -150 58 -281 22 -44 47
-98 57 -120 10 -22 39 -86 66 -143 27 -57 49 -108 49 -113 0 -11 52 -91 81
-124 10 -11 46 -54 81 -95 34 -41 67 -80 73 -86 6 -6 27 -31 46 -55 18 -23 43
-52 54 -64 11 -12 47 -54 79 -94 80 -98 151 -156 206 -171 25 -6 53 -13 63
-16 10 -3 42 -57 79 -132 34 -70 63 -129 63 -132 0 -6 103 -218 156 -322 22
-43 36 -78 32 -78 -4 0 -3 -4 3 -8 10 -7 23 -34 159 -317 36 -77 74 -156 83
-175 9 -19 22 -38 27 -42 6 -4 7 -8 3 -8 -4 0 3 -20 17 -44 13 -24 21 -46 18
-50 -4 -3 -1 -6 5 -6 6 0 14 -10 17 -22 4 -13 44 -99 90 -193 102 -209 188
-389 206 -433 8 -17 17 -32 20 -32 6 0 12 -15 23 -50 1 -5 76 -160 83 -173 2
-4 -4 -11 -14 -15 -51 -20 -154 -97 -178 -132 -29 -41 -55 -130 -55 -188 0
-19 8 -59 17 -90 9 -32 16 -60 15 -64 -1 -5 2 -8 7 -8 5 0 13 -10 17 -22 4
-13 22 -56 40 -96 19 -39 50 -107 69 -150 59 -128 76 -164 106 -226 16 -32 29
-62 29 -66 0 -16 139 -296 156 -316 11 -11 60 -55 109 -96 50 -42 137 -117
195 -167 179 -155 196 -166 276 -181 63 -11 80 -11 143 5 39 9 71 21 71 26 0
5 4 9 10 9 5 0 40 20 78 44 38 25 74 46 80 48 6 2 53 -37 105 -87 51 -49 172
-165 269 -257 161 -154 176 -171 182 -210 4 -24 23 -74 43 -113 83 -158 205
-397 258 -503 61 -120 110 -179 250 -299 100 -86 123 -99 195 -118 54 -14 73
-15 127 -5 64 12 106 36 378 215 44 29 147 96 230 150 159 105 173 116 198
156 49 76 57 234 16 311 -5 10 -7 23 -4 28 3 5 58 42 123 82 64 40 119 75 122
78 3 3 81 55 174 115 93 61 212 138 265 173 53 34 103 65 111 69 8 4 20 11 25
15 8 7 169 111 237 153 9 6 55 36 102 68 47 31 90 57 95 57 5 0 11 4 13 8 2 4
73 52 158 107 284 183 493 318 665 431 66 44 124 81 130 84 5 3 63 40 127 82
65 43 120 78 123 78 3 0 33 20 67 45 34 25 67 45 74 45 6 0 18 -10 27 -23 55
-85 211 -126 327 -86 35 12 392 237 398 252 2 4 8 7 12 7 5 0 73 42 152 94
206 135 215 154 225 451 4 147 3 190 -10 233 -9 28 -14 52 -11 52 13 0 -114
152 -226 271 -14 14 -39 44 -56 65 l-31 39 -6 225 c-4 124 -7 407 -8 629 l-1
404 87 53 c48 30 89 54 92 54 2 0 19 11 37 25 18 14 36 25 40 25 10 0 76 49
101 74 27 28 63 78 64 91 0 6 5 30 10 55 16 67 31 303 33 500 2 257 -18 329
-119 420 -26 24 -79 73 -118 110 -38 36 -133 125 -210 197 -77 72 -178 167
-225 212 -103 99 -146 126 -227 142 -101 21 -177 -3 -323 -99 l-74 -50 -36 36
c-20 21 -232 228 -470 462 -238 234 -463 454 -499 490 -36 36 -251 247 -477
468 l-410 402 -23 98 c-117 507 -119 511 -156 562 -19 26 -56 66 -82 90 -62
56 -197 182 -298 279 -73 70 -135 119 -135 106 0 -2 -12 0 -27 6 -44 16 -125
19 -174 5z m-295 -1838 c19 -24 48 -51 63 -62 21 -13 34 -35 47 -80 11 -33 25
-81 33 -106 8 -25 16 -52 18 -60 2 -8 8 -28 15 -45 6 -16 11 -32 11 -35 0 -4
9 -39 25 -95 2 -5 8 -26 13 -45 6 -19 24 -80 40 -135 16 -55 37 -127 46 -160
10 -33 20 -67 23 -75 3 -8 7 -24 9 -35 1 -11 7 -29 12 -40 6 -11 22 -63 36
-115 15 -52 36 -123 47 -158 11 -34 21 -68 22 -75 1 -6 8 -32 15 -57 7 -25 14
-49 16 -55 3 -12 1 -6 30 -96 l23 -73 -39 -26 c-100 -67 -138 -194 -104 -345
5 -24 2 -32 -14 -40 -46 -23 -136 -79 -139 -87 -2 -4 -8 -8 -14 -8 -5 0 -41
-20 -79 -45 -38 -25 -72 -45 -74 -45 -5 0 -72 -42 -170 -105 -27 -18 -70 -43
-95 -57 -25 -14 -77 -46 -117 -71 -39 -26 -74 -47 -78 -47 -4 0 -32 -18 -63
-39 -67 -47 -243 -152 -257 -154 -5 -1 -12 -5 -15 -8 -6 -7 -121 -83 -140 -93
-17 -8 -37 -20 -95 -57 -22 -14 -47 -29 -55 -32 -8 -4 -27 -15 -42 -25 -42
-27 -181 -113 -208 -129 -14 -8 -37 -22 -51 -31 -15 -9 -51 -32 -80 -50 -30
-18 -108 -66 -174 -107 -66 -42 -131 -81 -145 -87 -14 -7 -35 -20 -48 -30 -23
-16 -24 -16 -61 20 -46 45 -68 56 -143 72 -45 10 -69 10 -115 1 l-58 -12 -28
33 c-15 18 -64 83 -110 144 -122 165 -328 433 -384 503 -16 19 -43 55 -61 80
-18 25 -47 64 -65 87 -55 71 -181 235 -205 270 -18 24 -21 37 -14 51 5 10 15
44 22 75 11 47 11 69 1 114 -14 63 -46 140 -62 150 -10 6 132 96 147 93 4 0
10 4 13 9 6 10 92 61 141 85 14 6 27 14 30 17 12 12 90 60 99 60 5 0 16 6 23
13 11 11 95 60 257 152 20 11 75 44 122 73 48 28 91 52 97 52 6 0 12 4 14 9 2
5 28 22 58 39 79 44 273 159 287 172 7 6 23 15 35 21 13 5 41 21 63 34 22 14
51 30 65 37 14 7 60 34 102 60 43 27 80 48 83 48 3 0 42 24 88 53 45 29 98 61
117 70 37 19 41 21 197 115 54 32 105 62 113 65 8 4 27 15 42 25 40 25 188
113 228 135 19 11 46 27 60 37 14 9 32 20 40 23 8 4 31 17 51 29 52 33 189
111 222 128 15 7 27 17 27 22 0 4 4 8 9 8 5 0 42 20 82 45 41 24 77 45 81 45
4 0 22 -19 42 -42z m1333 -909 c37 -40 97 -102 133 -139 463 -478 599 -619
675 -700 50 -52 102 -106 116 -120 29 -28 46 -105 51 -229 3 -56 0 -66 -17
-76 -11 -5 -51 -31 -90 -56 -38 -25 -86 -54 -105 -65 -19 -10 -37 -21 -40 -24
-3 -3 -25 -18 -50 -32 -36 -21 -49 -24 -61 -15 -31 24 -67 83 -73 122 -8 47
-60 277 -88 386 -15 59 -28 85 -59 119 -22 24 -43 49 -47 55 -4 7 -36 45 -72
85 -36 40 -94 105 -128 144 -62 69 -89 110 -97 144 -2 10 -31 119 -63 245 -32
125 -58 227 -56 227 2 0 34 -32 71 -71z m-344 -1961 c23 -6 66 -12 94 -12 29
-1 53 -3 53 -6 0 -3 -62 -43 -138 -90 -75 -46 -140 -89 -144 -95 -4 -5 -8 -7
-8 -2 0 4 -30 -13 -67 -38 -37 -25 -73 -45 -80 -45 -6 0 -13 -4 -15 -8 -3 -7
-228 -151 -252 -161 -5 -2 -17 -11 -28 -20 -10 -9 -21 -14 -25 -13 -3 2 -9 0
-12 -5 -3 -6 -40 -29 -81 -54 -41 -24 -103 -63 -137 -86 -34 -24 -64 -43 -67
-43 -3 0 -80 -47 -171 -105 -92 -58 -170 -105 -175 -105 -5 0 -10 -4 -12 -8
-1 -5 -36 -29 -77 -53 -40 -24 -85 -52 -100 -61 -14 -10 -41 -25 -58 -35 -18
-9 -33 -20 -33 -24 0 -4 -8 -9 -17 -12 -20 -7 -84 -44 -168 -100 -31 -21 -71
-46 -89 -55 -17 -10 -49 -29 -71 -44 -22 -14 -89 -56 -150 -93 -96 -59 -147
-91 -267 -169 -31 -20 -37 -16 -12 9 18 18 43 113 44 165 0 19 -7 59 -14 88
-10 35 -11 52 -3 52 6 0 18 6 26 14 9 8 27 21 41 28 21 11 81 47 184 111 11 7
25 16 30 20 22 16 207 127 212 127 3 0 20 11 38 25 18 14 37 25 41 25 4 0 23
11 41 25 18 14 35 25 38 25 3 0 24 13 48 29 24 16 59 37 78 47 19 11 56 34 82
52 26 17 51 32 56 32 5 0 16 7 23 16 7 9 22 20 34 25 11 5 37 19 57 31 20 13
79 49 130 81 51 31 102 63 113 69 11 7 66 41 121 75 56 35 106 63 113 63 6 0
11 4 11 8 0 5 10 14 23 20 12 6 40 23 62 37 22 14 47 28 55 32 8 4 45 26 82
50 36 24 69 43 73 43 3 0 21 11 39 25 18 14 38 25 44 25 7 0 12 4 12 8 0 5 19
18 43 31 52 27 80 44 87 52 3 3 21 14 40 24 18 10 40 24 48 31 11 11 21 7 63
-26 28 -22 69 -45 92 -52z m1848 -310 c0 -13 4 -74 7 -136 l7 -112 -20 27
c-11 16 -45 58 -77 94 -31 36 -53 70 -50 75 4 5 21 16 37 24 17 8 41 22 54 32
31 24 41 23 42 -4z m-762 -704 c36 -44 146 -177 244 -295 337 -404 299 -351
302 -432 2 -40 6 -92 10 -117 l7 -46 -147 -94 c-80 -52 -182 -119 -227 -147
-45 -29 -85 -53 -90 -53 -4 0 -8 -4 -8 -10 0 -5 -6 -10 -12 -10 -7 0 -26 -11
-42 -25 -16 -14 -33 -25 -37 -25 -4 0 -14 -6 -21 -14 -8 -7 -27 -20 -43 -29
-34 -17 -164 -101 -182 -116 -7 -6 -15 -11 -18 -11 -4 0 -32 -17 -63 -39 -50
-33 -110 -72 -242 -156 -19 -12 -101 -64 -181 -116 -161 -104 -160 -103 -244
-156 -33 -20 -62 -40 -65 -43 -3 -3 -23 -17 -45 -30 -22 -13 -97 -61 -167
-107 -69 -46 -131 -83 -136 -83 -6 0 -12 -3 -14 -8 -3 -8 -285 -192 -294 -192
-5 0 -65 -41 -74 -50 -6 -7 -59 -41 -85 -55 -11 -5 -62 -39 -114 -74 l-94 -64
-34 42 c-58 69 -176 121 -243 106 -21 -5 -29 -2 -33 12 -3 10 -18 38 -33 63
-15 25 -43 74 -62 110 -19 36 -46 85 -60 110 -45 81 -80 144 -122 223 -22 43
-54 100 -71 128 -16 27 -29 52 -29 55 0 3 -9 17 -20 31 -11 14 -17 29 -14 34
3 5 1 9 -4 9 -9 0 -56 86 -64 117 -2 9 381 263 397 263 2 0 27 16 56 35 30 19
59 35 65 35 7 0 14 7 18 15 3 8 10 15 15 15 8 0 133 78 156 97 6 5 17 12 25
16 19 8 61 34 192 117 56 36 107 67 113 70 5 3 37 23 70 45 33 22 72 46 86 55
15 8 64 39 110 68 92 58 256 161 474 297 77 49 163 102 190 120 28 17 86 54
130 80 44 27 82 52 85 55 7 7 42 29 60 37 8 4 43 26 78 50 35 24 66 43 68 43
3 0 25 14 49 30 24 17 48 30 54 30 6 0 11 3 11 8 0 4 17 16 38 27 34 19 93 55
117 72 6 5 24 16 40 25 l30 18 39 -43 c21 -23 69 -78 105 -123z"/>
</g>
</svg>
